<svg xmlns="http://www.w3.org/2000/svg" xmlns:xlink="http://www.w3.org/1999/xlink" viewBox="0 0 24 30" version="1.1" x="0px" y="0px"><title>icon/squared-solid</title><desc>Created with Sketch.</desc><g stroke="none" stroke-width="1" fill="none" fill-rule="evenodd"><path d="M12.9326,6.5869 L7.9996,12.0129 L3.0676,6.5869 L1.5876,7.9329 L6.6486,13.4999 L1.5876,19.0669 L3.0676,20.4129 L7.9996,14.9869 L12.9326,20.4129 L14.4126,19.0669 L9.3516,13.4999 L14.4126,7.9329 L12.9326,6.5869 Z M18.9926,8.9999 L22.9996,8.9999 L22.9996,10.9999 L15.9996,10.9999 L15.9996,9.9999 C15.9996,8.1979 17.7926,7.3269 19.2336,6.6269 C19.7166,6.3929 20.9996,5.7689 20.9996,5.4999 C20.9996,5.4039 20.5836,4.9999 19.7496,4.9999 C19.0726,4.9999 18.6156,5.2829 18.5186,5.4759 L16.7306,4.5789 C17.2116,3.6199 18.3966,2.9999 19.7496,2.9999 C21.5726,2.9999 22.9996,4.0979 22.9996,5.4999 C22.9996,7.0209 21.4636,7.7679 20.1076,8.4259 C19.7436,8.6029 19.3436,8.7969 18.9926,8.9999 L18.9926,8.9999 Z" fill="#000000"/></g><text x="0" y="39" fill="#000000" font-size="5px" font-weight="bold" font-family="'Helvetica Neue', Helvetica, Arial-Unicode, Arial, Sans-serif">Created by Travis Avery</text><text x="0" y="44" fill="#000000" font-size="5px" font-weight="bold" font-family="'Helvetica Neue', Helvetica, Arial-Unicode, Arial, Sans-serif">from the Noun Project</text></svg>